<svg xmlns="http://www.w3.org/2000/svg" viewBox="6 44 288 163" width="600" height="340" role="img" aria-label="A drawing of a mother cat lying down, washing a much smaller kitten tucked under her chin">
<!-- Card thumbnail for found-kitten-pune.html: its panel 02, cropped to the drawing. No words on it on purpose:
     an SVG shown as an image cannot load the site's fonts, and the card's heading on learn.html is live text. -->
  <defs>
    <filter id="cwob" x="-14%" y="-14%" width="128%" height="128%">
      <feTurbulence type="fractalNoise" baseFrequency="0.028" numOctaves="3" seed="7" result="n"/>
      <feDisplacementMap in="SourceGraphic" in2="n" scale="2.6" xChannelSelector="R" yChannelSelector="G"/>
    </filter>
  </defs>
  <rect x="6" y="44" width="288" height="163" fill="#faf7f0"/>
  <g>
    <g style="mix-blend-mode:multiply" opacity=".8">
      <path d="M20 152c-8-40 22-64 62-64 32 0 56 18 60 44 1 8-1 14-3 18-40 8-84 8-119 2z" fill="#b9b0e8" opacity=".46" transform="rotate(-1 82 122)"/>
      <ellipse cx="188" cy="136" rx="38" ry="26" fill="#f5e07a" transform="rotate(3 188 136)"/>
    </g>
    <g filter="url(#cwob)" fill="none" stroke="#141118" stroke-width="4.4" stroke-linecap="round" stroke-linejoin="round">
      <path d="M10 152h280"/>
      <path d="M22 152c-4-36 20-58 58-58 24 0 42 12 50 30"/>
      <path d="M22 150c-11 2-16-6-9-13" stroke-width="3.6"/>
      <path d="M128 132c-3 10-3 14-1 20"/>
      <g transform="rotate(-14 140 104)">
        <path d="M123 90V68l17 13"/><path d="M157 90V68l-17 13"/>
        <circle cx="140" cy="104" r="27"/>
        <path d="M127 100c4-5 10-5 14 0" stroke-width="3.6"/>
        <path d="M149 100c4-5 10-5 14 0" stroke-width="3.6"/>
        <path d="M140 118l-4 4h8z" stroke-width="3"/>
      </g>
      <path d="M167 120l1-12 10 8"/><path d="M189 120l-1-12-10 8"/>
      <circle cx="178" cy="126" r="14"/>
      <path d="M173 125v3M183 125v3" stroke-width="3.2"/>
      <path d="M178 133l-3 3h6z" stroke-width="2.8"/>
      <path d="M189 136c14 2 22 7 22 16h-44"/>
      <path d="M211 152c11 0 14-5 10-11" stroke-width="3.4"/>
    </g>
  </g>
</svg>
